<svg width="30" height="30" viewBox="0 0 30 30" fill="none" xmlns="http://www.w3.org/2000/svg">
<path d="M15 0C6.71371 0 0 6.71371 0 15C0 23.2863 6.71371 30 15 30C23.2863 30 30 23.2863 30 15C30 6.71371 23.2863 0 15 0ZM13.0645 3.07258V3.75605C13.0645 4.47581 12.3085 4.94153 11.6613 4.62097L10.2097 3.89516C11.1109 3.50806 12.0665 3.23589 13.0645 3.07258ZM15 25.4395V27.0968C8.32863 27.0968 2.90323 21.6714 2.90323 15C2.90323 13.2399 3.29032 11.5706 3.96774 10.0585C4.56653 10.9476 5.49194 12.3206 6.06048 13.1492C6.375 13.6089 6.7379 14.0323 7.15524 14.4012L7.20363 14.4435C7.77823 14.9637 8.4254 15.4113 9.11492 15.7621C9.96169 16.1855 11.1956 16.8629 12.0665 17.3407C12.6835 17.6794 13.0645 18.3266 13.0645 19.0343V20.9698C13.0645 21.4839 13.2702 21.9738 13.6331 22.3367C14.5403 23.25 15.1028 24.6774 15 25.4395ZM17.5827 26.8125L18.6351 23.9758C18.756 23.6431 18.8347 23.2984 18.9254 22.9536C18.9919 22.7117 19.119 22.4879 19.3004 22.3064L19.9839 21.623C20.5161 21.0968 20.8125 20.377 20.8125 19.627C20.8125 19.1371 20.619 18.6653 20.2742 18.3206L19.4456 17.4919C19.0827 17.129 18.5927 16.9234 18.0786 16.9234H14.0323C13.4637 16.6391 12.7319 14.9879 12.0968 14.9879C11.4617 14.9879 10.8327 14.8367 10.2641 14.5524L9.59274 14.2198C9.35081 14.0988 9.19355 13.8448 9.19355 13.5726C9.19355 13.2641 9.39314 12.9859 9.68952 12.8891L11.5766 12.2601C11.9032 12.1512 12.2601 12.2238 12.5141 12.4476L13.0766 12.9375C13.1673 13.0161 13.2762 13.0585 13.3911 13.0585H13.7298C14.0927 13.0585 14.3226 12.6774 14.1653 12.3569L13.2218 10.4698C13.125 10.2823 13.1673 10.0524 13.3185 9.90726L13.9173 9.32661C14.0081 9.23589 14.129 9.1875 14.256 9.1875H14.8004C14.9274 9.1875 15.0544 9.13911 15.1452 9.04839L15.629 8.56452C15.8165 8.37702 15.8165 8.06855 15.629 7.88105L15.3448 7.59677C15.1573 7.40927 15.1573 7.10081 15.3448 6.91331L15.9677 6.29032L16.252 6.00605C16.627 5.63105 16.627 5.01411 16.252 4.63911L14.5403 2.92742C14.6915 2.92137 14.8427 2.90323 15 2.90323C19.7298 2.90323 23.8185 5.6371 25.8085 9.59879L25.0222 9.99193C24.7984 10.1069 24.6048 10.2762 24.4657 10.4819L23.2802 12.2601C22.9536 12.75 22.9536 13.3851 23.2802 13.869L24.3689 15.502C24.5685 15.8044 24.877 16.0161 25.2218 16.1069L26.9879 16.5484C26.3347 21.629 22.5181 25.7359 17.5827 26.8125Z" fill="white"/>
</svg>
