<svg width="15" height="15" viewBox="0 0 15 15" fill="none" xmlns="http://www.w3.org/2000/svg">
<path d="M14.7244 11.4089L11.0799 7.76216C10.6229 7.30521 10.0223 7.07674 9.42172 7.07674C8.97056 7.07674 8.51939 7.20562 8.12975 7.46632L5.62491 4.96192V2.81195L1.87497 0L0 1.87463L2.81245 5.6239H4.96281L7.46765 8.1283C6.86415 9.03925 6.96375 10.2753 7.76648 11.0779L11.4139 14.7247C11.5955 14.9063 11.8357 15 12.076 15C12.3162 15 12.5564 14.9092 12.7381 14.7247L14.7273 12.7358C15.0906 12.3667 15.0906 11.775 14.7244 11.4089V11.4089ZM4.68742 4.63093V4.68658H3.2812L1.23924 1.96251L1.96286 1.23902L4.68742 3.28061V4.63093ZM12.073 14.0598L8.42857 10.413C8.16198 10.1465 8.0155 9.79496 8.0155 9.42004C8.0155 9.04511 8.16198 8.69069 8.42857 8.42707C8.69517 8.16052 9.04673 8.01406 9.42172 8.01406C9.79672 8.01406 10.1512 8.16052 10.4149 8.42707L14.0623 12.0709L12.073 14.0598ZM1.87497 12.6538C1.87497 12.9115 2.0859 13.1224 2.34371 13.1224C2.60152 13.1224 2.81245 12.9115 2.81245 12.6538C2.81245 12.396 2.60152 12.1851 2.34371 12.1851C2.0859 12.1851 1.87497 12.396 1.87497 12.6538ZM8.10924 1.95958C8.77427 1.29467 9.65023 0.937317 10.5643 0.937317C10.7664 0.937317 10.9686 0.954892 11.1707 0.990041L9.14048 3.02285L9.54477 5.45401L11.9793 5.85823L14.0095 3.82835C14.2058 4.94728 13.8543 6.07791 13.0398 6.88928C12.7791 7.14997 12.4803 7.35794 12.1609 7.51904L12.8523 8.21031C13.157 8.02871 13.4441 7.81195 13.7019 7.55126C14.8093 6.44405 15.2458 4.87405 14.865 3.35384C14.7976 3.07557 14.5808 2.85589 14.3054 2.77973C14.0271 2.70357 13.7283 2.77973 13.5232 2.98477L11.6512 4.85647L10.3563 4.63972L10.1395 3.34505L12.0115 1.47335C12.2137 1.27124 12.2928 0.972466 12.2166 0.697129C12.1404 0.418863 11.9178 0.205038 11.6395 0.134739C10.1248 -0.243117 8.55455 0.190393 7.44422 1.2976C7.06629 1.67545 6.77333 2.11482 6.56239 2.58641V4.57235L7.20984 5.21968C6.9286 4.03632 7.25672 2.81195 8.10924 1.95958V1.95958ZM3.13471 13.6819C2.64839 14.1681 1.7988 14.1681 1.31248 13.6819C0.81151 13.181 0.81151 12.3609 1.31248 11.86L5.59268 7.58055L4.93058 6.91857L0.65038 11.198C-0.216793 12.065 -0.216793 13.4769 0.65038 14.3468C1.06932 14.7657 1.62888 14.9971 2.2236 14.9971C2.81831 14.9971 3.37788 14.7657 3.79681 14.3439L6.77919 11.365C6.5829 11.0955 6.43349 10.7996 6.32509 10.4921L3.13471 13.6819Z" fill="black"/>
</svg>
