<svg width="25" height="25" viewBox="0 0 25 25" fill="none" xmlns="http://www.w3.org/2000/svg">
<path d="M12.5 0C5.59476 0 0 5.59476 0 12.5C0 19.4052 5.59476 25 12.5 25C19.4052 25 25 19.4052 25 12.5C25 5.59476 19.4052 0 12.5 0ZM10.8871 2.56048V3.13004C10.8871 3.72984 10.2571 4.11794 9.71774 3.85081L8.50806 3.24597C9.25907 2.92339 10.0554 2.69657 10.8871 2.56048V2.56048ZM12.5 21.1996V22.5806C6.94052 22.5806 2.41935 18.0595 2.41935 12.5C2.41935 11.0333 2.74194 9.64214 3.30645 8.38206C3.80544 9.12298 4.57661 10.2671 5.0504 10.9577C5.3125 11.3407 5.61492 11.6935 5.9627 12.001L6.00302 12.0363C6.48185 12.4698 7.02117 12.8427 7.59577 13.1351C8.30141 13.4879 9.32964 14.0524 10.0554 14.4506C10.5696 14.7329 10.8871 15.2722 10.8871 15.8619V17.4748C10.8871 17.9032 11.0585 18.3115 11.3609 18.6139C12.1169 19.375 12.5857 20.5645 12.5 21.1996ZM14.6522 22.3437L15.5292 19.9798C15.63 19.7026 15.6956 19.4153 15.7712 19.128C15.8266 18.9264 15.9325 18.7399 16.0837 18.5887L16.6532 18.0192C17.0968 17.5806 17.3438 16.9808 17.3438 16.3558C17.3438 15.9476 17.1825 15.5544 16.8952 15.2671L16.2046 14.5766C15.9022 14.2742 15.494 14.1028 15.0655 14.1028H11.6935C11.2198 13.8659 10.6099 12.4899 10.0806 12.4899C9.55141 12.4899 9.02722 12.3639 8.55343 12.127L7.99395 11.8498C7.79234 11.749 7.66129 11.5373 7.66129 11.3105C7.66129 11.0534 7.82762 10.8216 8.0746 10.7409L9.64718 10.2167C9.91935 10.126 10.2167 10.1865 10.4284 10.373L10.8972 10.7812C10.9728 10.8468 11.0635 10.8821 11.1593 10.8821H11.4415C11.744 10.8821 11.9355 10.5645 11.8044 10.2974L11.0181 8.7248C10.9375 8.56855 10.9728 8.37702 11.0988 8.25605L11.5978 7.77218C11.6734 7.69657 11.7742 7.65625 11.88 7.65625H12.3337C12.4395 7.65625 12.5454 7.61593 12.621 7.54032L13.0242 7.1371C13.1804 6.98085 13.1804 6.72379 13.0242 6.56754L12.7873 6.33065C12.631 6.1744 12.631 5.91734 12.7873 5.76109L13.3065 5.24194L13.5433 5.00504C13.8558 4.69254 13.8558 4.17843 13.5433 3.86593L12.1169 2.43952C12.2429 2.43448 12.369 2.41935 12.5 2.41935C16.4415 2.41935 19.8488 4.69758 21.5071 7.99899L20.8518 8.32661C20.6653 8.42238 20.504 8.56351 20.3881 8.73488L19.4002 10.2167C19.128 10.625 19.128 11.1542 19.4002 11.5575L20.3075 12.9183C20.4738 13.1704 20.7308 13.3468 21.0181 13.4224L22.4899 13.7903C21.9456 18.0242 18.7651 21.4466 14.6522 22.3437V22.3437Z" fill="#FFB600"/>
</svg>
