<svg width="20" height="18" viewBox="0 0 20 18" fill="none" xmlns="http://www.w3.org/2000/svg">
<path d="M19.4444 5.53571C19.375 5.53571 19.3056 5.54955 19.2361 5.57723L13.3333 7.75L12.9757 7.62545C13.7847 6.41797 14.4444 5.16205 14.4444 4.25558C14.4444 1.9029 12.4549 0 10 0C7.54514 0 5.55556 1.90636 5.55556 4.25558C5.55556 4.66384 5.69444 5.14821 5.91667 5.66027L0.697917 7.47321C0.277778 7.63929 0 8.04755 0 8.50078V17.1607C0 17.479 0.260417 17.7143 0.555556 17.7143C0.625 17.7143 0.694444 17.7004 0.763889 17.6728L6.66667 15.5L12.6389 17.6001C13.0903 17.7489 13.5764 17.7523 14.0278 17.607L19.3021 15.7768C19.7257 15.6073 20 15.2025 20 14.7492V6.08929C20 5.77098 19.7396 5.53571 19.4444 5.53571ZM6.11111 14.5243L1.10764 16.365L1.0625 8.51462L6.11111 6.76741V14.5243ZM10 1.10714C11.8368 1.10714 13.3333 2.51875 13.3333 4.25558C13.3333 5.18973 12.0104 7.33136 10 9.68058C7.98958 7.33136 6.66667 5.18973 6.66667 4.25558C6.66667 2.51875 8.16319 1.10714 10 1.10714ZM12.7778 16.4757L7.22222 14.5209V7.91607C8.06944 9.13739 9.03125 10.2688 9.57292 10.8811C9.68403 11.0092 9.84375 11.0714 10 11.0714C10.1563 11.0714 10.3125 11.0092 10.4271 10.8811C10.8715 10.3795 11.5972 9.52835 12.3125 8.56652L12.7778 8.72913V16.4757ZM13.8889 16.4826V8.72567L18.8924 6.88505L18.9375 14.7354L13.8889 16.4826ZM10.8333 4.42857C10.8333 3.96842 10.4583 3.59821 10 3.59821C9.54167 3.59821 9.16667 3.96842 9.16667 4.42857C9.16667 4.88527 9.54167 5.25893 10 5.25893C10.4583 5.25893 10.8333 4.88873 10.8333 4.42857Z" fill="black"/>
</svg>
