<svg width="17" height="15" viewBox="0 0 17 15" fill="none" xmlns="http://www.w3.org/2000/svg">
<path d="M15.4062 3.21429H11.6875V0.803571C11.6875 0.359598 11.3309 0 10.8906 0H6.10938C5.6691 0 5.3125 0.359598 5.3125 0.803571V3.21429H1.59375C0.713535 3.21429 0 3.93382 0 4.82143V13.3929C0 14.2805 0.713535 15 1.59375 15H15.4062C16.2865 15 17 14.2805 17 13.3929V4.82143C17 3.93382 16.2865 3.21429 15.4062 3.21429ZM6.375 1.07143H10.625V3.21429H6.375V1.07143ZM15.9375 13.3929C15.9375 13.6882 15.6991 13.9286 15.4062 13.9286H1.59375C1.3009 13.9286 1.0625 13.6882 1.0625 13.3929V8.57143H6.375V9.91071C6.375 10.3544 6.73193 10.7143 7.17188 10.7143H9.82812C10.2681 10.7143 10.625 10.3544 10.625 9.91071V8.57143H15.9375V13.3929ZM7.4375 9.64286V8.57143H9.5625V9.64286H7.4375ZM15.9375 7.5H1.0625V4.82143C1.0625 4.52612 1.3009 4.28571 1.59375 4.28571H15.4062C15.6991 4.28571 15.9375 4.52612 15.9375 4.82143V7.5Z" fill="black"/>
</svg>
