<svg width="17" height="17" viewBox="0 0 17 17" fill="none" xmlns="http://www.w3.org/2000/svg">
<path d="M0.486853 11.875H10.4417C10.5057 11.8751 10.569 11.8621 10.6281 11.837C10.6872 11.8118 10.7409 11.7749 10.7861 11.7283C10.8313 11.6818 10.8672 11.6265 10.8916 11.5657C10.9161 11.5049 10.9286 11.4397 10.9286 11.3738V10.5012C10.9286 10.4353 10.9161 10.3701 10.8916 10.3093C10.8672 10.2485 10.8313 10.1932 10.7861 10.1467C10.7409 10.1001 10.6872 10.0632 10.6281 10.038C10.569 10.0129 10.5057 9.99995 10.4417 10H0.486853C0.422904 9.99995 0.359573 10.0129 0.300483 10.038C0.241393 10.0632 0.187703 10.1001 0.142485 10.1467C0.0972663 10.1932 0.0614069 10.2485 0.036958 10.3093C0.012509 10.3701 -4.97531e-05 10.4353 1.48126e-07 10.5012V11.3738C-4.97531e-05 11.4397 0.012509 11.5049 0.036958 11.5657C0.0614069 11.6265 0.0972663 11.6818 0.142485 11.7283C0.187703 11.7749 0.241393 11.8118 0.300483 11.837C0.359573 11.8621 0.422904 11.8751 0.486853 11.875V11.875ZM0.486853 1.875H10.4417C10.5057 1.87505 10.569 1.86212 10.6281 1.83696C10.6872 1.81179 10.7409 1.77487 10.7861 1.72832C10.8313 1.68178 10.8672 1.62651 10.8916 1.56568C10.9161 1.50485 10.9286 1.43966 10.9286 1.37383V0.501172C10.9286 0.435343 10.9161 0.370149 10.8916 0.309321C10.8672 0.248493 10.8313 0.193224 10.7861 0.146675C10.7409 0.100127 10.6872 0.0632129 10.6281 0.0380449C10.569 0.0128769 10.5057 -5.12165e-05 10.4417 1.52483e-07H0.486853C0.422904 -5.12165e-05 0.359573 0.0128769 0.300483 0.0380449C0.241393 0.0632129 0.187703 0.100127 0.142485 0.146675C0.0972663 0.193224 0.0614069 0.248493 0.036958 0.309321C0.012509 0.370149 -4.97531e-05 0.435343 1.48126e-07 0.501172V1.37383C-4.97531e-05 1.43966 0.012509 1.50485 0.036958 1.56568C0.0614069 1.62651 0.0972663 1.68178 0.142485 1.72832C0.187703 1.77487 0.241393 1.81179 0.300483 1.83696C0.359573 1.86212 0.422904 1.87505 0.486853 1.875V1.875ZM16.3929 5H0.607143C0.446119 5 0.291689 5.06585 0.177828 5.18306C0.0639668 5.30027 1.48126e-07 5.45924 1.48126e-07 5.625V6.25C1.48126e-07 6.41576 0.0639668 6.57473 0.177828 6.69194C0.291689 6.80915 0.446119 6.875 0.607143 6.875H16.3929C16.5539 6.875 16.7083 6.80915 16.8222 6.69194C16.936 6.57473 17 6.41576 17 6.25V5.625C17 5.45924 16.936 5.30027 16.8222 5.18306C16.7083 5.06585 16.5539 5 16.3929 5ZM16.3929 15H0.607143C0.446119 15 0.291689 15.0658 0.177828 15.1831C0.0639668 15.3003 1.48126e-07 15.4592 1.48126e-07 15.625V16.25C1.48126e-07 16.4158 0.0639668 16.5747 0.177828 16.6919C0.291689 16.8092 0.446119 16.875 0.607143 16.875H16.3929C16.5539 16.875 16.7083 16.8092 16.8222 16.6919C16.936 16.5747 17 16.4158 17 16.25V15.625C17 15.4592 16.936 15.3003 16.8222 15.1831C16.7083 15.0658 16.5539 15 16.3929 15Z" fill="black"/>
</svg>
