<svg width="53" height="53" viewBox="0 0 53 53" fill="none" xmlns="http://www.w3.org/2000/svg">
<path d="M52.5386 15.9702L49.2982 12.6138C48.9906 12.3819 48.644 12.2672 48.2571 12.2672C47.8702 12.2672 47.5626 12.3831 47.3319 12.6138L16.8953 43.1652L5.67042 31.9403C5.43854 31.6315 5.13212 31.4777 4.74526 31.4777C4.3584 31.4777 4.01058 31.6315 3.70417 31.9403L0.462577 35.1795C0.154981 35.4883 0 35.8361 0 36.2206C0 36.6051 0.154981 36.9151 0.462577 37.1458L15.8542 52.6522C16.1618 52.8841 16.5084 53 16.8953 53C17.2822 53 17.5898 52.8841 17.8205 52.6522L52.5374 17.9352C52.845 17.6264 53 17.2786 53 16.8941C53.0012 16.5108 52.8462 16.2009 52.5386 15.9702ZM15.6022 29.9362C15.9122 30.1693 16.2624 30.2864 16.6528 30.2864C17.0432 30.2864 17.3532 30.1693 17.5862 29.9362L41.8023 5.72011C42.1123 5.40778 42.2696 5.05759 42.2696 4.66955C42.2696 4.2815 42.1123 3.96917 41.8023 3.73611L38.5335 0.350186C38.2235 0.117123 37.8734 0 37.483 0C37.0925 0 36.7826 0.117123 36.5495 0.350186L16.6528 20.3629L9.5059 13.216C9.27284 12.9037 8.96288 12.7487 8.57247 12.7487C8.18206 12.7487 7.83187 12.9037 7.52191 13.216L4.25311 16.4848C3.94315 16.7971 3.7858 17.1473 3.7858 17.5353C3.7858 17.9246 3.94315 18.2357 4.25311 18.4688L15.6022 29.9362Z" fill="white"/>
</svg>
