<svg width="7" height="12" viewBox="0 0 7 12" fill="none" xmlns="http://www.w3.org/2000/svg">
<g clip-path="url(#clip0)">
<path d="M6.26296 6.00041C6.26303 6.0972 6.24398 6.19305 6.20692 6.28245C6.16985 6.37186 6.11549 6.45307 6.04696 6.52141L1.52096 11.0474C1.45313 11.1184 1.37178 11.1752 1.28171 11.2143C1.19164 11.2535 1.09465 11.2742 0.996448 11.2753C0.898244 11.2765 0.800805 11.258 0.709857 11.2209C0.618908 11.1838 0.536284 11.129 0.466839 11.0595C0.397394 10.9901 0.342529 10.9075 0.305468 10.8165C0.268406 10.7256 0.249896 10.6281 0.251025 10.5299C0.252154 10.4317 0.272899 10.3347 0.312041 10.2447C0.351183 10.1546 0.407933 10.0732 0.478956 10.0054L4.47896 6.00541L0.478955 2.00541C0.339451 1.86723 0.260552 1.6793 0.259614 1.48295C0.258677 1.2866 0.335777 1.09792 0.473955 0.958411C0.612133 0.818907 0.800069 0.740009 0.99642 0.739071C1.19277 0.738133 1.38145 0.815233 1.52096 0.953411L6.04696 5.47941C6.11549 5.54775 6.16985 5.62896 6.20692 5.71837C6.24398 5.80778 6.26303 5.90362 6.26296 6.00041V6.00041Z" fill="#FFB600"/>
</g>
<defs>
<clipPath id="clip0">
<rect width="10.526" height="6" fill="white" transform="translate(0.262939 11.2632) rotate(-90)"/>
</clipPath>
</defs>
</svg>
