<svg width="750" height="581" viewBox="0 0 750 581" fill="none" xmlns="http://www.w3.org/2000/svg">
<path d="M5.71814 566.602H728.361C746.782 530.302 753.061 485.508 748.256 441.721C742.964 393.521 725.298 350.395 707.296 306.529C707.296 306.529 605.201 57.4898 418.561 9.39877C231.921 -38.6922 153.641 108.357 125.04 210.348C96.4392 312.339 -8.95984 447.364 0.613158 540.111C1.52007 549.076 3.22855 557.942 5.71814 566.602V566.602Z" fill="#D3D2FF"/>
<path d="M405.433 553.469C403.184 549.696 401.944 545.408 401.833 541.017L388.067 540.68C388.067 540.68 388.889 545.424 386.479 549.059C385.429 550.644 382.447 551.77 378.333 553.384C371.807 556.536 363.744 560.609 363.415 562.805C362.866 566.465 400.84 567.278 407.237 563.876C410.585 562.097 408.375 558.046 405.433 553.469Z" fill="#1E1240"/>
<path d="M545.135 485.892C545.135 485.892 547.548 478.119 555.723 478.655C563.898 479.191 567.89 506.587 565.64 512.963C564.032 517.52 556.259 520.602 548.218 519.663C540.177 518.724 549.424 503.045 549.424 503.045L545.135 485.892Z" fill="#1E1240"/>
<path d="M434.536 379.515C434.536 379.515 503.91 390.876 498.765 414.136C485.897 472.322 389.201 427.491 387.798 433.368C385.927 441.211 391.742 434.605 397.198 467.122C398.058 472.242 405.617 522.348 408.116 538.932C408.218 539.607 408.178 540.295 407.999 540.953C407.821 541.612 407.507 542.226 407.079 542.757C406.65 543.288 406.116 543.724 405.51 544.037C404.904 544.351 404.24 544.535 403.559 544.578L378.697 546.184C375.952 546.392 373.211 545.737 370.856 544.311C368.501 542.885 366.65 540.76 365.562 538.231C356.506 517.154 334.454 462.039 333.595 423.223C332.898 391.584 374.887 365.154 434.536 379.515Z" fill="#311E69"/>
<path d="M392.253 284.197C392.253 284.197 355.814 313.773 351.346 318.842C346.878 323.911 375.801 353.042 389.125 353.042C402.449 353.042 417.894 332.436 417.894 332.436L392.253 284.197Z" fill="#AD263D"/>
<path d="M201.084 538.278V352.84H231.057V538.278H246.62C247.524 538.278 248.418 538.456 249.253 538.802C250.088 539.147 250.846 539.654 251.485 540.293C252.124 540.932 252.631 541.691 252.977 542.526C253.322 543.361 253.5 544.255 253.5 545.159V554.435C253.5 554.816 253.425 555.193 253.279 555.545C253.134 555.896 252.92 556.216 252.651 556.485C252.382 556.755 252.062 556.968 251.71 557.114C251.358 557.26 250.981 557.335 250.6 557.335H181.543C181.162 557.335 180.785 557.26 180.433 557.114C180.081 556.968 179.762 556.755 179.493 556.485C179.223 556.216 179.01 555.896 178.864 555.545C178.718 555.193 178.643 554.816 178.643 554.435V545.159C178.643 543.334 179.368 541.584 180.659 540.293C181.949 539.003 183.699 538.278 185.524 538.278H201.084Z" fill="white"/>
<path d="M156.389 387.878H404.148C408.588 387.878 410.617 384.278 408.679 379.838L334.222 209.248C332.285 204.808 327.114 201.208 322.674 201.208H74.915C70.475 201.208 68.446 204.808 70.384 209.248L144.84 379.838C146.778 384.279 151.949 387.878 156.389 387.878Z" fill="white"/>
<path d="M164.347 387.878H412.106C416.545 387.878 418.575 384.278 416.636 379.838L342.181 209.248C340.243 204.808 335.072 201.208 330.632 201.208H82.871C78.431 201.208 76.402 204.808 78.34 209.248L152.796 379.838C154.733 384.279 159.904 387.878 164.347 387.878Z" fill="#311E69"/>
<path d="M400.947 343.897L399.264 340.043H336.305L317.287 296.471H380.247L378.565 292.617H315.606L296.587 249.044H359.546L357.863 245.19H294.904L275.886 201.618H333.324C332.448 201.356 331.539 201.219 330.624 201.21H82.8701C82.0716 201.2 81.2782 201.339 80.53 201.618H137.968L156.985 245.19H94.0261L95.7083 249.044H158.667L177.685 292.617H114.726L116.408 296.471H179.367L198.385 340.043H135.426L137.109 343.897H200.067L219.085 387.47H222.939L203.921 343.897H267.1L286.118 387.47H289.972L270.954 343.897H334.133L353.151 387.47H357.005L337.987 343.897H400.947ZM311.747 292.616H248.577L229.559 249.043H292.738L311.747 292.616ZM272.029 201.616L291.047 245.188H227.867L208.849 201.616H272.029ZM141.818 201.616H204.996L224.014 245.188H160.835L141.818 201.616ZM162.518 249.042H225.697L244.715 292.615H181.536L162.518 249.042ZM202.236 340.042L183.218 296.47H246.397L265.415 340.042H202.236ZM269.269 340.042L250.251 296.47H313.43L332.448 340.042H269.269Z" fill="white"/>
<path d="M514.529 373.372C518.192 370.013 509.174 334.207 499.037 308.388C494.237 296.155 485.692 261.773 454.082 257.528C430.182 254.319 397.166 274.106 389.772 287.898C376.491 312.668 418.88 355.293 432.094 389.508C432.094 389.509 499.729 386.589 514.529 373.372Z" fill="#FFF8F8"/>
<path d="M493.707 359.037C493.707 359.037 456.677 299.528 455.407 289.225L399.022 313.274C399.022 313.274 414.36 357.483 423.531 376.088C426.826 382.773 424.961 396.163 449.795 396.512C471.327 396.816 512.52 386.274 493.707 359.037Z" fill="#614CD4"/>
<path d="M457.11 300.742L455.41 289.224L451.701 257.286C451.701 257.286 446.562 255.197 442.886 257.534C442.886 257.534 446.393 290.509 448.515 299.339C450.637 308.169 457.11 300.742 457.11 300.742Z" fill="#614CD4"/>
<path d="M409.352 315.937L399.026 313.274C399.026 313.274 393.436 299.247 398.686 277.639C398.686 277.639 399.121 275.775 404.846 272.884C404.846 272.885 401.81 298.374 409.352 315.937Z" fill="#614CD4"/>
<path d="M449.741 299.558C449.881 299.836 450.075 300.085 450.311 300.288C450.547 300.492 450.821 300.647 451.117 300.745C451.413 300.842 451.725 300.881 452.036 300.858C452.347 300.835 452.651 300.751 452.929 300.611C453.208 300.471 453.456 300.277 453.659 300.041C453.863 299.805 454.018 299.531 454.116 299.235C454.214 298.939 454.252 298.627 454.229 298.316C454.206 298.005 454.122 297.701 453.982 297.423C453.699 296.861 453.204 296.434 452.606 296.237C452.008 296.039 451.356 296.087 450.794 296.37C450.516 296.51 450.268 296.704 450.064 296.94C449.86 297.176 449.705 297.45 449.608 297.746C449.51 298.042 449.471 298.354 449.494 298.665C449.517 298.976 449.601 299.279 449.741 299.558V299.558Z" fill="white"/>
<path d="M403.412 317.573C403.552 317.851 403.746 318.1 403.982 318.303C404.218 318.507 404.492 318.662 404.788 318.76C405.084 318.858 405.397 318.896 405.707 318.873C406.018 318.85 406.322 318.766 406.6 318.626C407.162 318.343 407.589 317.848 407.787 317.25C407.984 316.652 407.936 316 407.652 315.438C407.369 314.876 406.874 314.449 406.276 314.251C405.678 314.054 405.026 314.102 404.463 314.385C404.185 314.525 403.937 314.719 403.733 314.955C403.53 315.191 403.375 315.465 403.277 315.761C403.18 316.057 403.141 316.37 403.165 316.681C403.188 316.991 403.272 317.295 403.412 317.573V317.573Z" fill="white"/>
<path d="M476.233 282.278C476.233 282.278 481.518 300.864 469.994 341.244C460.494 374.523 435.568 394.801 417.894 393.485C417.894 393.485 453.912 345.532 462.756 321.678C471.6 297.824 476.233 282.278 476.233 282.278Z" fill="#311E69"/>
<path d="M445.759 312.454L414.687 326.018C414.687 326.018 417.787 338.131 430.022 339.657C442.257 341.183 453.465 332.667 445.759 312.454Z" fill="#311E69"/>
<path d="M402.269 250.216C402.269 250.216 396.199 247.668 399.643 242.038C404.197 234.594 414.702 239.638 416.71 242.35C419.704 246.391 420.276 254.569 420.276 254.569C420.276 254.569 405.261 255.166 402.269 250.216Z" fill="#1E1240"/>
<path d="M416.692 250.245L427.68 263.495C428.52 265.631 419.264 275.995 414.841 274.576C413.546 274.162 413.036 272.002 413.116 269.419L414.022 255.173L416.692 250.245Z" fill="#FF6161"/>
<path d="M413.842 258.035C416.042 256.712 419.034 254.864 419.034 254.864C419.722 257.536 419.374 260.37 418.059 262.797C416.988 264.79 415.301 266.382 413.25 267.337L413.842 258.035Z" fill="#311E69"/>
<path d="M411.706 246.394L418.195 253.412C419.136 254.604 419.575 256.116 419.418 257.627C419.261 259.138 418.52 260.528 417.354 261.501C415.501 263.04 413.327 264.143 410.991 264.731C408.499 265.531 406.25 263.817 404.832 260.724C403.385 257.394 402.518 253.841 402.27 250.219C401.883 245.031 407.142 242.13 411.706 246.394Z" fill="#FF6161"/>
<path d="M409.518 254.677C408.107 255.695 406.537 256.472 404.871 256.977C404.871 256.977 405.621 258.81 406.998 258.934C408.375 259.058 409.849 257.123 409.518 254.677Z" fill="white"/>
<path d="M408.85 261.996C411.25 260.256 415.088 263.337 418.05 257.396C418.602 256.287 418.285 254.377 418.057 253.26L418.199 253.413C419.14 254.605 419.579 256.117 419.422 257.628C419.265 259.139 418.525 260.528 417.359 261.502C415.506 263.04 413.332 264.144 410.996 264.731C410.271 264.956 409.497 264.973 408.763 264.78C408.029 264.587 407.364 264.193 406.842 263.641C407.341 263.5 408.117 262.527 408.85 261.996Z" fill="#AD263D"/>
<path d="M413.462 248.974C413.481 248.383 413.438 247.792 413.332 247.21C413.148 246.099 413.132 244.41 414.915 244.944C417.507 245.726 418.438 251.118 415.768 252.023C413.781 252.696 413.391 250.465 413.462 248.974Z" fill="#FF6161"/>
<path d="M536.902 479.849C530.265 480.964 506.866 492.685 492.143 503.181C492.143 503.181 527.612 429.026 524.855 401.918C524.387 396.721 523.391 391.585 521.881 386.59C521.881 386.576 521.881 386.563 521.881 386.549C520.161 369.495 506.627 330.162 506.627 330.162C498.588 333.199 479.107 338.562 479.107 338.562C479.107 338.562 437.131 452.223 442.397 495.649C448.759 548.087 464.108 563.039 480.174 561.907C503.934 560.233 538.209 528.129 550.132 508.642C562.055 489.155 545.397 478.423 536.902 479.849Z" fill="#614CD4"/>
<path d="M524.855 401.921C524.387 396.724 523.391 391.587 521.881 386.592C521.881 386.578 521.881 386.565 521.881 386.551C521.693 384.685 521.356 382.54 520.918 380.22C519.918 393.004 517.056 415.009 508.918 430.497C496.801 453.548 486.512 506.997 492.149 503.182C492.143 503.184 527.613 429.029 524.855 401.921Z" fill="#311E69"/>
<path d="M550.137 508.64C558.003 495.784 553.428 486.74 546.963 482.485C543.988 485.056 541.466 488.11 539.504 491.519C536.287 497.058 503.945 517.071 496.619 522.789C489.293 528.507 492.51 549.235 486.077 554.595C481.858 558.111 476.194 560.177 472.785 561.187C475.19 561.85 477.692 562.092 480.18 561.903C503.937 560.231 538.213 528.124 550.137 508.64Z" fill="#311E69"/>
<path d="M466.754 265.156C442.885 259.896 423.398 345.616 414.225 352.819C405.052 360.022 305.316 379.548 302.181 389.951C299.046 400.354 308.909 406.778 338.247 404.372C366.798 402.031 418.219 402.613 439.975 380.222C465.636 353.814 490.306 270.346 466.754 265.156Z" fill="#FF6161"/>
<path d="M466.753 265.156C466.259 265.051 465.757 264.984 465.253 264.956C464.838 271.089 464.253 281.168 464.092 291.656C463.823 308.542 447.205 351.695 437.292 363.756C427.379 375.817 406.468 394.7 382.613 396.516C358.758 398.332 318.013 400.716 310.513 398.985C307.715 398.339 304.953 397.546 302.238 396.61C304.828 402.897 315.864 406.204 338.244 404.368C366.795 402.027 418.216 402.609 439.972 380.218C465.632 353.814 490.305 270.346 466.753 265.156Z" fill="#AD263D"/>
<path d="M308.874 390.558C308.874 390.558 305.73 381.225 302.043 379.788C298.356 378.351 294.166 373.434 292.997 371.074C291.828 368.714 287.834 370.983 290.347 374.901C292.86 378.819 295.264 384.43 293.386 385.608C291.508 386.786 270.651 385.979 271.496 388.418C272.341 390.857 278.803 393.418 286.98 396.47C295.157 399.522 309.34 401.878 308.874 390.558Z" fill="#FF6161"/>
<path d="M632.869 580.327C632.869 580.327 675.934 500.027 666.719 484.735C657.504 469.443 635.194 523.788 635.194 523.788C635.194 523.788 657.494 429.656 648.167 420.143C638.84 410.63 626.079 451.934 626.079 451.934C626.079 451.934 631.857 384.262 619.514 384.156C607.171 384.05 602.884 471.722 601.069 496.032C599.254 520.342 582.221 587.15 632.869 580.327Z" fill="#38A7C1"/>
<path d="M112.088 118.028H245.823C247.257 118.028 248.301 115.935 247.923 113.804C246.686 106.721 242.68 92.7038 230.049 87.4268C209.89 79.0038 206.681 95.9268 197.587 91.0488C186.587 85.1418 200.587 49.7978 162.512 57.2978C147.148 60.3238 157.652 88.5688 146.96 93.6738C141.993 96.0458 135.855 92.5738 126.306 96.7078C118.181 100.228 111.825 105.608 110.019 113.59C109.533 115.76 110.594 118.028 112.088 118.028Z" fill="#FFE6E6"/>
<path d="M247.928 113.802C247.204 109.576 245.915 105.467 244.094 101.586C238.133 99.7463 231.951 98.7244 225.715 98.5476C208.463 97.6806 207.34 108.673 191.964 100.986C176.588 93.2985 179.964 79.7976 168.339 80.9226C156.714 82.0476 160.464 98.9225 155.964 104.174C151.464 109.425 138.713 106.049 122.213 108.374C116.667 109.154 112.863 110.844 110.25 112.742C110.172 113.025 110.088 113.304 110.023 113.594C109.531 115.765 110.593 118.031 112.086 118.031H245.821C247.258 118.026 248.301 115.933 247.928 113.802Z" fill="#FFD6D6"/>
<path d="M532.681 110.921C529.215 110.892 526.793 105.412 528.232 100.532C530.702 92.1539 537.814 90.7639 543.895 91.2839C546.703 91.5229 549.523 91.025 552.08 89.8396C554.636 88.6542 556.839 86.8223 558.47 84.5248C560.547 81.6098 563.085 79.3668 565.628 80.3888C566.773 80.851 567.89 81.379 568.974 81.9699C570.969 83.0819 573.239 83.6028 575.52 83.472C577.8 83.3411 579.996 82.5638 581.851 81.2309C587.022 77.4309 595.075 73.2819 604.48 74.6099C606.676 74.9145 608.912 74.7497 611.04 74.1264C613.168 73.5031 615.14 72.4353 616.825 70.9938C623.77 65.0938 636.331 57.6709 649.184 66.2569C661.892 74.7469 666.649 91.9429 668.417 102.679C669.198 107.427 666.866 112.035 663.684 112.009L532.681 110.921Z" fill="#FFE6E6"/>
<path d="M668.477 105.924C666.662 103.523 665.13 100.92 663.913 98.1667C659.9 88.0967 647.587 87.2827 639.525 85.2667C631.463 83.2507 628.44 87.4837 618.565 89.4997C608.69 91.5157 600.627 89.6997 579.465 89.6997C558.303 89.6997 570.798 97.7617 559.165 101.188C547.532 104.614 540.57 97.5597 532.255 100.988C531.25 101.332 530.341 101.908 529.599 102.669C528.857 103.429 528.304 104.353 527.984 105.366C528.528 108.446 530.369 110.9 532.684 110.92L663.684 112.007C666.122 112.028 668.056 109.324 668.477 105.924Z" fill="#FFD6D6"/>
</svg>
