<svg xmlns="http://www.w3.org/2000/svg" width="749.809" height="580.814" viewBox="0 0 749.809 580.814">
  <g id="Grupo_83" data-name="Grupo 83" transform="translate(-3779.796 1282.048)">
    <path id="Caminho_87" data-name="Caminho 87" d="M3785.514-715.446h722.643c18.421-36.3,24.7-81.094,19.895-124.881-5.292-48.2-22.958-91.326-40.96-135.192,0,0-102.095-249.039-288.735-297.13s-264.92,98.958-293.521,200.949-134,237.016-124.427,329.763A150.824,150.824,0,0,0,3785.514-715.446Z" transform="translate(0)" fill="#d3d2ff"/>
    <g id="Grupo_79" data-name="Grupo 79" transform="translate(3849.446 -1080.839)">
      <path id="Caminho_88" data-name="Caminho 88" d="M5038.707,541.215a25.582,25.582,0,0,1-3.6-12.452l-13.766-.337s.822,4.744-1.588,8.379c-1.05,1.585-4.032,2.711-8.146,4.325-6.526,3.152-14.589,7.225-14.918,9.421-.549,3.66,37.425,4.473,43.822,1.071C5043.859,549.843,5041.649,545.792,5038.707,541.215Z" transform="translate(-4702.924 -188.955)" fill="#1e1240"/>
      <path id="Caminho_89" data-name="Caminho 89" d="M5604.7,327.908s2.413-7.773,10.588-7.237,12.167,27.932,9.917,34.308c-1.608,4.557-9.381,7.639-17.422,6.7s1.206-16.618,1.206-16.618Z" transform="translate(-5129.215 -43.225)" fill="#1e1240"/>
      <path id="Caminho_90" data-name="Caminho 90" d="M4997.771-20.661S5067.145-9.3,5062,13.96c-12.868,58.186-109.564,13.355-110.967,19.232-1.871,7.843,3.944,1.237,9.4,33.754.86,5.12,8.419,55.226,10.918,71.81a4.923,4.923,0,0,1-4.557,5.646l-24.862,1.606a13.214,13.214,0,0,1-13.135-7.953c-9.056-21.077-31.108-76.192-31.967-115.008C4896.133-8.592,4938.122-35.022,4997.771-20.661Z" transform="translate(-4632.885 198.967)" fill="#311e69"/>
      <path id="Caminho_91" data-name="Caminho 91" d="M4996.1-330.411s-36.439,29.576-40.907,34.645,24.455,34.2,37.779,34.2,28.769-20.606,28.769-20.606Z" transform="translate(-4673.497 413.399)" fill="#ad263d"/>
      <g id="Grupo_76" data-name="Grupo 76" transform="translate(0 0)">
        <path id="Caminho_92" data-name="Caminho 92" d="M4400.42,84.878V-100.56h29.973V84.878h15.563a6.88,6.88,0,0,1,6.88,6.881v9.276a2.9,2.9,0,0,1-2.9,2.9h-69.057a2.9,2.9,0,0,1-2.9-2.9V91.759a6.881,6.881,0,0,1,6.881-6.881Z" transform="translate(-4268.986 252.191)" fill="#fff"/>
        <g id="Grupo_75" data-name="Grupo 75">
          <path id="Caminho_93" data-name="Caminho 93" d="M4099.759-421.628h247.759c4.44,0,6.469-3.6,4.531-8.04l-74.457-170.59c-1.937-4.44-7.108-8.04-11.548-8.04H4018.285c-4.44,0-6.469,3.6-4.531,8.04l74.456,170.59C4090.148-425.227,4095.319-421.628,4099.759-421.628Z" transform="translate(-4013.02 608.297)" fill="#fff"/>
          <path id="Caminho_94" data-name="Caminho 94" d="M4126.4-421.628h247.759c4.439,0,6.469-3.6,4.53-8.04l-74.455-170.59c-1.938-4.44-7.109-8.04-11.549-8.04H4044.924c-4.44,0-6.469,3.6-4.531,8.04l74.456,170.59C4116.786-425.227,4121.957-421.628,4126.4-421.628Z" transform="translate(-4031.703 608.297)" fill="#311e69"/>
          <g id="Grupo_74" data-name="Grupo 74" transform="translate(10.88)">
            <path id="Caminho_95" data-name="Caminho 95" d="M4369.87-465.609l-1.683-3.854h-62.959l-19.018-43.572h62.96l-1.682-3.854h-62.959l-19.019-43.573h62.959l-1.683-3.854h-62.959l-19.018-43.572h57.438a9.776,9.776,0,0,0-2.7-.408H4051.793a6.469,6.469,0,0,0-2.34.408h57.438l19.017,43.572h-62.959l1.682,3.854h62.959l19.018,43.573h-62.959l1.682,3.854h62.959l19.018,43.572h-62.959l1.683,3.854h62.958l19.018,43.573h3.854l-19.018-43.573h63.179l19.018,43.573h3.854l-19.018-43.573h63.179l19.018,43.573h3.854l-19.018-43.573Zm-89.2-51.281H4217.5l-19.018-43.573h63.179Zm-39.718-91,19.018,43.572h-63.18l-19.018-43.572Zm-130.211,0h63.178l19.018,43.572h-63.179Zm20.7,47.426h63.179l19.018,43.573h-63.179Zm39.718,91-19.018-43.572h63.179l19.018,43.572Zm67.033,0-19.018-43.572h63.179l19.018,43.572Z" transform="translate(-4049.453 608.297)" fill="#fff"/>
          </g>
        </g>
      </g>
      <path id="Caminho_96" data-name="Caminho 96" d="M5203.735-304.68c3.663-3.359-5.355-39.165-15.492-64.984-4.8-12.233-13.345-46.615-44.955-50.86-23.9-3.209-56.916,16.578-64.31,30.37-13.281,24.77,29.108,67.395,42.322,101.61C5121.3-288.543,5188.935-291.463,5203.735-304.68Z" transform="translate(-4758.856 476.843)" fill="#fff8f8"/>
      <path id="Caminho_97" data-name="Caminho 97" d="M5210.62-243.763s-37.03-59.509-38.3-69.812l-56.385,24.049s15.338,44.209,24.509,62.814c3.295,6.685,1.43,20.075,26.264,20.424C5188.24-205.984,5229.433-216.526,5210.62-243.763Z" transform="translate(-4786.563 401.591)" fill="#614cd4"/>
      <path id="Caminho_98" data-name="Caminho 98" d="M5277.029-379.082l-1.7-11.518-3.709-31.938s-5.139-2.089-8.815.248c0,0,3.507,32.975,5.629,41.805S5277.029-379.082,5277.029-379.082Z" transform="translate(-4889.569 478.615)" fill="#614cd4"/>
      <path id="Caminho_99" data-name="Caminho 99" d="M5120.185-325.237l-10.326-2.663s-5.59-14.027-.34-35.635c0,0,.435-1.864,6.16-4.755C5115.679-368.289,5112.643-342.8,5120.185-325.237Z" transform="translate(-4780.483 439.965)" fill="#614cd4"/>
      <path id="Caminho_100" data-name="Caminho 100" d="M5285.159-287.059a2.374,2.374,0,0,0,3.188,1.053,2.374,2.374,0,0,0,1.053-3.188,2.375,2.375,0,0,0-3.188-1.053A2.374,2.374,0,0,0,5285.159-287.059Z" transform="translate(-4905.068 385.408)" fill="#fff"/>
      <path id="Caminho_101" data-name="Caminho 101" d="M5130.027-226.737a2.374,2.374,0,0,0,3.188,1.053,2.374,2.374,0,0,0,1.052-3.188,2.375,2.375,0,0,0-3.189-1.053A2.373,2.373,0,0,0,5130.027-226.737Z" transform="translate(-4796.265 343.101)" fill="#fff"/>
      <path id="Caminho_102" data-name="Caminho 102" d="M5237.459-336.835s5.285,18.586-6.239,58.966c-9.5,33.279-34.426,53.557-52.1,52.241,0,0,36.018-47.953,44.862-71.807S5237.459-336.835,5237.459-336.835Z" transform="translate(-4830.876 417.904)" fill="#311e69"/>
      <path id="Caminho_103" data-name="Caminho 103" d="M5199.451-235.8l-31.072,13.564s3.1,12.113,15.335,13.639S5207.157-215.587,5199.451-235.8Z" transform="translate(-4823.342 347.045)" fill="#311e69"/>
      <g id="Grupo_78" data-name="Grupo 78" transform="translate(328.936 36.938)">
        <path id="Caminho_104" data-name="Caminho 104" d="M5118.15-472.54s-6.07-2.548-2.626-8.178c4.554-7.444,15.059-2.4,17.067.312,2.994,4.041,3.566,12.219,3.566,12.219S5121.142-467.59,5118.15-472.54Z" transform="translate(-5114.467 484.609)" fill="#1e1240"/>
        <path id="Caminho_105" data-name="Caminho 105" d="M5166.68-444.1l10.988,13.25c.84,2.136-8.416,12.5-12.839,11.081-1.295-.414-1.805-2.574-1.725-5.157l.906-14.246Z" transform="translate(-5148.574 456.198)" fill="#ff6161"/>
        <path id="Caminho_106" data-name="Caminho 106" d="M5164.159-425.459c2.2-1.323,5.192-3.171,5.192-3.171a10.929,10.929,0,0,1-.975,7.933,10.475,10.475,0,0,1-4.809,4.54Z" transform="translate(-5148.903 445.347)" fill="#311e69"/>
        <path id="Caminho_107" data-name="Caminho 107" d="M5136.192-461.825l6.489,7.018a5.831,5.831,0,0,1-.841,8.089,16.115,16.115,0,0,1-6.363,3.23c-2.492.8-4.741-.914-6.159-4.007A31.788,31.788,0,0,1,5126.756-458C5126.369-463.188,5131.628-466.089,5136.192-461.825Z" transform="translate(-5123.072 470.072)" fill="#ff6161"/>
        <path id="Caminho_108" data-name="Caminho 108" d="M5140.161-429.258a15.729,15.729,0,0,1-4.647,2.3s.75,1.833,2.127,1.957S5140.492-426.812,5140.161-429.258Z" transform="translate(-5129.229 445.788)" fill="#fff"/>
        <g id="Grupo_77" data-name="Grupo 77" transform="translate(8.251 15.111)">
          <path id="Caminho_109" data-name="Caminho 109" d="M5144.109-425.27c2.4-1.74,6.238,1.341,9.2-4.6.552-1.109.235-3.019.007-4.136l.142.153a5.831,5.831,0,0,1-.84,8.089,16.111,16.111,0,0,1-6.363,3.229,4.06,4.06,0,0,1-4.154-1.09C5142.6-423.766,5143.376-424.739,5144.109-425.27Z" transform="translate(-5142.096 434.008)" fill="#ad263d"/>
        </g>
        <path id="Caminho_110" data-name="Caminho 110" d="M5163.781-458.062a8.356,8.356,0,0,0-.13-1.764c-.184-1.111-.2-2.8,1.583-2.266,2.592.782,3.523,6.174.853,7.079C5164.1-454.34,5163.71-456.571,5163.781-458.062Z" transform="translate(-5148.905 468.889)" fill="#ff6161"/>
      </g>
      <path id="Caminho_111" data-name="Caminho 111" d="M5354.605-26.8c-6.637,1.115-30.036,12.836-44.759,23.332,0,0,35.469-74.155,32.712-101.263a76.784,76.784,0,0,0-2.974-15.328c0-.014,0-.027,0-.041-1.72-17.054-15.254-56.387-15.254-56.387-8.039,3.037-27.52,8.4-27.52,8.4S5254.834-54.426,5260.1-11c6.362,52.438,21.711,67.39,37.777,66.258,23.76-1.674,58.035-33.778,69.958-53.265S5363.1-28.226,5354.605-26.8Z" transform="translate(-4887.353 305.44)" fill="#614cd4"/>
      <path id="Caminho_112" data-name="Caminho 112" d="M5456.733,12.829A76.747,76.747,0,0,0,5453.759-2.5c0-.014,0-.027,0-.041-.188-1.866-.525-4.011-.963-6.331-1,12.784-3.862,34.789-12,50.277-12.117,23.051-22.406,76.5-16.769,72.685C5424.021,114.092,5459.491,39.937,5456.733,12.829Z" transform="translate(-5001.528 187.883)" fill="#311e69"/>
      <path id="Caminho_113" data-name="Caminho 113" d="M5440.268,359.716c7.866-12.856,3.291-21.9-3.174-26.155a35.031,35.031,0,0,0-7.459,9.034c-3.217,5.539-35.559,25.552-42.885,31.27s-4.109,26.446-10.542,31.806c-4.219,3.516-9.883,5.582-13.292,6.592a21.635,21.635,0,0,0,7.395.716C5394.068,411.307,5428.344,379.2,5440.268,359.716Z" transform="translate(-4959.781 -52.285)" fill="#311e69"/>
      <path id="Caminho_114" data-name="Caminho 114" d="M4954.918-394.714c-23.869-5.26-43.356,80.46-52.529,87.663s-108.909,26.729-112.044,37.132,6.728,16.827,36.066,14.421c28.551-2.341,79.972-1.759,101.728-24.15C4953.8-306.056,4978.47-389.524,4954.918-394.714Z" transform="translate(-4557.814 458.661)" fill="#ff6161"/>
      <path id="Caminho_115" data-name="Caminho 115" d="M4956.364-394.633a9.8,9.8,0,0,0-1.5-.2c-.415,6.133-1,16.212-1.161,26.7-.269,16.886-16.887,60.039-26.8,72.1s-30.824,30.944-54.679,32.76-64.6,4.2-72.1,2.469a81.936,81.936,0,0,1-8.275-2.375c2.59,6.287,13.626,9.594,36.006,7.758,28.551-2.341,79.972-1.759,101.728-24.15C4955.243-305.975,4979.916-389.443,4956.364-394.633Z" transform="translate(-4559.261 458.58)" fill="#ad263d"/>
      <path id="Caminho_116" data-name="Caminho 116" d="M4726.222-22.27s-3.144-9.333-6.831-10.77-7.877-6.354-9.046-8.714-5.163-.091-2.65,3.827,4.917,9.529,3.039,10.707-22.735.371-21.89,2.81,7.307,5,15.484,8.052S4726.688-10.95,4726.222-22.27Z" transform="translate(-4486.998 211.619)" fill="#ff6161"/>
    </g>
    <path id="Caminho_117" data-name="Caminho 117" d="M5814.425,200.477s43.065-80.3,33.85-95.592-31.525,39.053-31.525,39.053,22.3-94.132,12.973-103.645-22.088,31.791-22.088,31.791,5.778-67.672-6.565-67.778-16.63,87.566-18.445,111.876S5763.777,207.3,5814.425,200.477Z" transform="translate(-1401.76 -902.198)" fill="#38a7c1"/>
    <g id="Grupo_82" data-name="Grupo 82" transform="translate(3889.699 -1225.791)">
      <g id="Grupo_80" data-name="Grupo 80" transform="translate(0 0)">
        <path id="Caminho_118" data-name="Caminho 118" d="M4149.994-1031.9h133.735c1.434,0,2.478-2.093,2.1-4.224-1.237-7.083-5.243-21.1-17.874-26.377-20.159-8.423-23.368,8.5-32.462,3.622-11-5.907,3-41.251-35.075-33.751-15.364,3.026-4.86,31.271-15.552,36.376-4.967,2.372-11.105-1.1-20.654,3.034-8.125,3.52-14.481,8.9-16.287,16.882C4147.439-1034.168,4148.5-1031.9,4149.994-1031.9Z" transform="translate(-4147.809 1093.671)" fill="#ffe6e6"/>
        <path id="Caminho_119" data-name="Caminho 119" d="M4285.834-978.354A47.751,47.751,0,0,0,4282-990.57a68.968,68.968,0,0,0-18.379-3.038c-17.252-.867-18.375,10.125-33.751,2.438s-12-21.188-23.625-20.063-7.875,18-12.375,23.251-17.251,1.875-33.751,4.2c-5.546.78-9.35,2.47-11.963,4.368-.078.283-.162.562-.227.852-.492,2.171.57,4.437,2.063,4.437h133.735C4285.164-974.13,4286.207-976.223,4285.834-978.354Z" transform="translate(-4147.809 1035.899)" fill="#ffd6d6"/>
      </g>
      <g id="Grupo_81" data-name="Grupo 81" transform="translate(417.907 6.098)">
        <path id="Caminho_120" data-name="Caminho 120" d="M5552.047-1024.686c-3.466-.029-5.888-5.509-4.449-10.389,2.47-8.378,9.582-9.768,15.663-9.248a16.191,16.191,0,0,0,14.575-6.759c2.077-2.915,4.615-5.158,7.158-4.136a32.093,32.093,0,0,1,3.346,1.581,12.03,12.03,0,0,0,12.877-.739c5.171-3.8,13.224-7.949,22.629-6.621a15.677,15.677,0,0,0,12.345-3.616c6.945-5.9,19.506-13.323,32.359-4.737,12.708,8.49,17.465,25.686,19.233,36.422.781,4.748-1.551,9.356-4.733,9.33Z" transform="translate(-5547.176 1073.252)" fill="#ffe6e6"/>
        <path id="Caminho_121" data-name="Caminho 121" d="M5688.244-977.117a39.027,39.027,0,0,1-4.564-7.757c-4.013-10.07-16.326-10.884-24.388-12.9s-11.085,2.217-20.96,4.233-17.938.2-39.1.2-8.667,8.062-20.3,11.488-18.595-3.628-26.91-.2a6.789,6.789,0,0,0-4.271,4.378c.544,3.08,2.385,5.534,4.7,5.554l131,1.087C5685.889-971.013,5687.823-973.717,5688.244-977.117Z" transform="translate(-5547.577 1020.686)" fill="#ffd6d6"/>
      </g>
    </g>
  </g>
</svg>
