<svg id="instagram" xmlns="http://www.w3.org/2000/svg" width="49.121" height="49.122" viewBox="0 0 49.121 49.122">
  <g id="Grupo_84" data-name="Grupo 84">
    <path id="Caminho_122" data-name="Caminho 122" d="M42.637,23.88H28a4.243,4.243,0,0,0-4.238,4.238v14.64A4.243,4.243,0,0,0,28,47h14.64a4.243,4.243,0,0,0,4.239-4.239V28.118A4.243,4.243,0,0,0,42.637,23.88Zm-7.32,19.169a7.61,7.61,0,1,1,7.61-7.61A7.619,7.619,0,0,1,35.317,43.048ZM43.172,29.4a1.8,1.8,0,1,1,1.8-1.8A1.8,1.8,0,0,1,43.172,29.4Z" transform="translate(-10.757 -10.811)" fill="#164464"/>
    <path id="Caminho_123" data-name="Caminho 123" d="M41.244,36.971a4.394,4.394,0,1,0,4.394,4.393A4.4,4.4,0,0,0,41.244,36.971Z" transform="translate(-16.683 -16.738)" fill="#164464"/>
    <path id="Caminho_124" data-name="Caminho 124" d="M24.561,0A24.561,24.561,0,1,0,49.121,24.561,24.561,24.561,0,0,0,24.561,0ZM39.335,31.947A7.462,7.462,0,0,1,31.881,39.4H17.24a7.462,7.462,0,0,1-7.454-7.454V17.307A7.462,7.462,0,0,1,17.24,9.853h14.64a7.462,7.462,0,0,1,7.454,7.454Z" fill="#164464"/>
  </g>
</svg>
