<svg xmlns="http://www.w3.org/2000/svg" width="49.103" height="49.103" viewBox="0 0 49.103 49.103">
  <path id="Caminho_125" data-name="Caminho 125" d="M24.551,0A24.551,24.551,0,1,0,49.1,24.551,24.554,24.554,0,0,0,24.551,0ZM17.417,37.115H11.438V19.126h5.979Zm-2.99-20.446h-.039a3.116,3.116,0,1,1,.079-6.216,3.118,3.118,0,1,1-.04,6.216Zm24.55,20.446H33V27.491c0-2.419-.866-4.068-3.029-4.068A3.273,3.273,0,0,0,26.9,25.61a4.1,4.1,0,0,0-.2,1.459V37.115H20.726s.078-16.3,0-17.989h5.979v2.547A5.936,5.936,0,0,1,32.094,18.7c3.934,0,6.884,2.571,6.884,8.1Zm0,0" fill="#fff"/>
</svg>
