<svg xmlns="http://www.w3.org/2000/svg" width="341.064" height="340.24" viewBox="0 0 341.064 340.24">
  <g id="Grupo_93" data-name="Grupo 93" transform="translate(-608.311 19.82)">
    <path id="Caminho_126" data-name="Caminho 126" d="M668.829,40.542a10.97,10.97,0,0,1-5.773-14.376h0a10.954,10.954,0,0,1,14.41-5.756h0a10.971,10.971,0,0,1,5.767,14.382h0c-.2.427-.393.826-.615,1.2h0A10.954,10.954,0,0,1,668.829,40.542Z" transform="translate(252.812 184.614)" fill="#ffb600"/>
    <path id="Caminho_127" data-name="Caminho 127" d="M671.948,49.783a10.958,10.958,0,0,1-15.423-1.594h0a10.956,10.956,0,0,1,1.548-15.418h0a11.009,11.009,0,0,1,15.441,1.566h0a11.021,11.021,0,0,1,.979,12.446h0A11.025,11.025,0,0,1,671.948,49.783Z" transform="translate(214.668 235.296)" fill="#164464"/>
    <path id="Caminho_128" data-name="Caminho 128" d="M676.214,28.079a11.009,11.009,0,0,1-11.82-10.072h0A10.967,10.967,0,0,1,674.448,6.222h0a10.968,10.968,0,0,1,11.837,10.038h0a11.055,11.055,0,0,1-1.463,6.377h0A10.934,10.934,0,0,1,676.214,28.079Z" transform="translate(263.061 122.037)" fill="#164464"/>
    <path id="Caminho_129" data-name="Caminho 129" d="M655.015,57.79a10.979,10.979,0,0,1-12.964-8.534h0a10.98,10.98,0,0,1,8.569-12.947h0a10.981,10.981,0,0,1,12.941,8.569h0a10.838,10.838,0,0,1-1.247,7.686h0A10.842,10.842,0,0,1,655.015,57.79Z" transform="translate(157.313 262.4)" fill="#164464"/>
    <path id="Caminho_130" data-name="Caminho 130" d="M676.928,13.615a11,11,0,0,1-15.145-3.462h0a10.979,10.979,0,0,1,3.445-15.116h0a10.96,10.96,0,0,1,15.116,3.445h0a10.941,10.941,0,0,1,.211,11.364h0A10.968,10.968,0,0,1,676.928,13.615Z" transform="translate(243.097 61.82)" fill="#164464"/>
    <path id="Caminho_131" data-name="Caminho 131" d="M636.224,57.057a10.981,10.981,0,0,1-7.442-13.619h0a10.96,10.96,0,0,1,13.579-7.458h0a10.991,10.991,0,0,1,7.464,13.585h0a11.209,11.209,0,0,1-1.059,2.471h0A11.022,11.022,0,0,1,636.224,57.057Z" transform="translate(93.965 259.848)" fill="#ffb600"/>
    <path id="Caminho_132" data-name="Caminho 132" d="M656.3,4.692l-.256-.148h0l-.25-.148h0a10.932,10.932,0,0,1-4.037-14.974h0A10.946,10.946,0,0,1,666.7-14.626h0l.313.182h0l.29.165h0A10.957,10.957,0,0,1,671.284.712h0A10.952,10.952,0,0,1,656.3,4.692Z" transform="translate(196.977 17.561)" fill="#ffb600"/>
    <path id="Caminho_133" data-name="Caminho 133" d="M635.506,47.327a10.965,10.965,0,0,1-15.5.347h0a11,11,0,0,1-.325-15.532h0a10.97,10.97,0,0,1,15.509-.29h0a10.952,10.952,0,0,1,1.908,13.4h0A10.714,10.714,0,0,1,635.506,47.327Z" transform="translate(39.041 228.119)" fill="#164464"/>
    <path id="Caminho_134" data-name="Caminho 134" d="M647.816,2.1a10.987,10.987,0,0,1-10.51-11.381h0A10.939,10.939,0,0,1,648.659-19.81h0a10.982,10.982,0,0,1,10.562,11.37h0a10.885,10.885,0,0,1-1.464,5.067h0A10.983,10.983,0,0,1,647.816,2.1Z" transform="translate(136.056 0)" fill="#ffb600"/>
    <path id="Caminho_135" data-name="Caminho 135" d="M623.844,38.726a10.943,10.943,0,0,1-13.852-6.94h0A10.937,10.937,0,0,1,616.9,17.923h0a11.018,11.018,0,0,1,13.9,6.923h0a10.984,10.984,0,0,1-.951,9h0A10.956,10.956,0,0,1,623.844,38.726Z" transform="translate(5.161 174.507)" fill="#164464"/>
    <path id="Caminho_136" data-name="Caminho 136" d="M639.723,3.755a10.945,10.945,0,0,1-14.615-5.187h0a10.971,10.971,0,0,1,5.215-14.592h0a10.945,10.945,0,0,1,14.615,5.181h0a10.905,10.905,0,0,1-.444,10.225h0A10.805,10.805,0,0,1,639.723,3.755Z" transform="translate(73.914 12.781)" fill="#164464"/>
    <path id="Caminho_137" data-name="Caminho 137" d="M617.515,25.686a10.932,10.932,0,0,1-9.058-12.565h0A10.989,10.989,0,0,1,621.04,4.028h0A10.973,10.973,0,0,1,630.1,16.593h0a10.807,10.807,0,0,1-1.349,3.78h0A10.967,10.967,0,0,1,617.515,25.686Z" transform="translate(0 111.284)" fill="#164464"/>
    <path id="Caminho_138" data-name="Caminho 138" d="M633.338,9a10.971,10.971,0,0,1-15.35,2.209h0A11,11,0,0,1,615.78-4.146h0a10.958,10.958,0,0,1,15.355-2.2h0A10.943,10.943,0,0,1,634.061,7.9h0C633.839,8.278,633.589,8.642,633.338,9Z" transform="translate(24.84 52.935)" fill="#ffb600"/>
    <path id="Caminho_139" data-name="Caminho 139" d="M663.241,35.047a8.935,8.935,0,0,1-4.7-11.768h0a8.989,8.989,0,0,1,11.774-4.708h0a8.968,8.968,0,0,1,4.7,11.774h0a5.467,5.467,0,0,1-.484.985h0A8.958,8.958,0,0,1,663.241,35.047Z" transform="translate(232.285 176.774)" fill="#164464"/>
    <path id="Caminho_140" data-name="Caminho 140" d="M665.783,42.618a8.918,8.918,0,0,1-12.594-1.309h0A8.931,8.931,0,0,1,654.464,28.7h0a8.965,8.965,0,0,1,12.611,1.275h0a8.986,8.986,0,0,1,.808,10.186h0A8.839,8.839,0,0,1,665.783,42.618Z" transform="translate(201.082 218.241)" fill="#164464"/>
    <path id="Caminho_141" data-name="Caminho 141" d="M669.3,24.871a9.012,9.012,0,0,1-9.679-8.233h0a9.015,9.015,0,0,1,8.233-9.673h0a9.008,9.008,0,0,1,9.679,8.233h0a9.167,9.167,0,0,1-1.213,5.215h0A9,9,0,0,1,669.3,24.871Z" transform="translate(240.68 125.57)" fill="#164464"/>
    <path id="Caminho_142" data-name="Caminho 142" d="M651.9,49.174a8.927,8.927,0,0,1-10.55-7.014h0a8.954,8.954,0,0,1,6.98-10.567h0a9,9,0,0,1,10.6,7h0a9.056,9.056,0,0,1-1.031,6.286h0A8.953,8.953,0,0,1,651.9,49.174Z" transform="translate(154.176 240.431)" fill="#164464"/>
    <path id="Caminho_143" data-name="Caminho 143" d="M669.878,13a8.976,8.976,0,0,1-12.389-2.83h0a8.952,8.952,0,0,1,2.818-12.355h0A8.966,8.966,0,0,1,672.662.628h0a8.963,8.963,0,0,1,.188,9.286h0A8.851,8.851,0,0,1,669.878,13Z" transform="translate(224.345 76.321)" fill="#ffb600"/>
    <path id="Caminho_144" data-name="Caminho 144" d="M636.58,48.56a8.94,8.94,0,0,1-6.1-11.108h0A8.967,8.967,0,0,1,641.6,31.315h0a8.991,8.991,0,0,1,6.086,11.142h0a8.876,8.876,0,0,1-.86,1.993h0A8.96,8.96,0,0,1,636.58,48.56Z" transform="translate(102.32 238.323)" fill="#164464"/>
    <path id="Caminho_145" data-name="Caminho 145" d="M652.985,5.735,653,5.707l-.125-.074h0c-.1-.057-.2-.08-.3-.137h0a9.006,9.006,0,0,1-3.314-12.275h0a8.95,8.95,0,0,1,12.253-3.285h0l.256.148h0l.222.131h0a8.956,8.956,0,0,1,3.285,12.258h0A8.99,8.99,0,0,1,652.985,5.735Z" transform="translate(186.603 40.099)" fill="#164464"/>
    <path id="Caminho_146" data-name="Caminho 146" d="M635.986,40.606a8.946,8.946,0,0,1-12.7.245h0l-.017.028h0a9.011,9.011,0,0,1-.239-12.691h0a9.017,9.017,0,0,1,12.707-.273h0A9.01,9.01,0,0,1,637.267,38.9h0A8.566,8.566,0,0,1,635.986,40.606Z" transform="translate(57.383 212.379)" fill="#164464"/>
    <path id="Caminho_147" data-name="Caminho 147" d="M646.077,3.608a8.992,8.992,0,0,1-8.625-9.314h0a9,9,0,0,1,9.314-8.626h0a8.948,8.948,0,0,1,8.625,9.314h0A9.076,9.076,0,0,1,654.2-.85h0A9.075,9.075,0,0,1,646.077,3.608Z" transform="translate(136.742 25.727)" fill="#164464"/>
    <path id="Caminho_148" data-name="Caminho 148" d="M626.428,33.575a8.923,8.923,0,0,1-11.319-5.682h0a8.933,8.933,0,0,1,5.648-11.347h0a9.011,9.011,0,0,1,11.375,5.671h0a9.053,9.053,0,0,1-.769,7.373h0A9.054,9.054,0,0,1,626.428,33.575Z" transform="translate(29.666 168.505)" fill="#ffb600"/>
    <path id="Caminho_149" data-name="Caminho 149" d="M639.457,4.985A8.978,8.978,0,0,1,627.489.7h0a8.936,8.936,0,0,1,4.258-11.933h0A8.979,8.979,0,0,1,643.7-7h0a9.042,9.042,0,0,1-.342,8.381h0A9.023,9.023,0,0,1,639.457,4.985Z" transform="translate(85.915 36.187)" fill="#164464"/>
    <path id="Caminho_150" data-name="Caminho 150" d="M621.276,22.878A8.986,8.986,0,0,1,613.84,12.6h0a8.969,8.969,0,0,1,10.305-7.413h0a8.976,8.976,0,0,1,7.436,10.271h0a8.983,8.983,0,0,1-1.11,3.074h0A8.934,8.934,0,0,1,621.276,22.878Z" transform="translate(25.436 116.797)" fill="#164464"/>
    <path id="Caminho_151" data-name="Caminho 151" d="M634.213,9.216a8.962,8.962,0,0,1-12.554,1.839h0a8.968,8.968,0,0,1-1.793-12.577h0a8.982,8.982,0,0,1,12.542-1.8h0a8.988,8.988,0,0,1,2.386,11.689h0A4.519,4.519,0,0,1,634.213,9.216Z" transform="translate(45.76 69.049)" fill="#164464"/>
    <path id="Caminho_152" data-name="Caminho 152" d="M658.47,30.367a7.24,7.24,0,0,1-3.809-9.519h0a7.276,7.276,0,0,1,9.571-3.832h0a7.3,7.3,0,0,1,3.792,9.559h0a7.632,7.632,0,0,1-.4.774h0A7.26,7.26,0,0,1,658.47,30.367Z" transform="translate(214.755 170.079)" fill="#164464"/>
    <path id="Caminho_153" data-name="Caminho 153" d="M660.53,36.489h0a7.244,7.244,0,0,1-10.2-1.059h0a7.248,7.248,0,0,1,1.025-10.22h0a7.294,7.294,0,0,1,10.226,1.025h0a7.269,7.269,0,0,1,.666,8.244h0A7.14,7.14,0,0,1,660.53,36.489Z" transform="translate(189.477 203.686)" fill="#164464"/>
    <path id="Caminho_154" data-name="Caminho 154" d="M663.38,22.1a7.272,7.272,0,0,1-7.84-6.661h0A7.305,7.305,0,0,1,662.2,7.6h0a7.3,7.3,0,0,1,7.84,6.661h0a7.3,7.3,0,0,1-.985,4.247h0A7.162,7.162,0,0,1,663.38,22.1Z" transform="translate(221.557 128.601)" fill="#164464"/>
    <path id="Caminho_155" data-name="Caminho 155" d="M649.288,41.784a7.235,7.235,0,0,1-8.557-5.636h0a7.282,7.282,0,0,1,5.659-8.591h0a7.277,7.277,0,0,1,8.591,5.659h0a7.338,7.338,0,0,1-.843,5.09h0A7.139,7.139,0,0,1,649.288,41.784Z" transform="translate(151.465 221.659)" fill="#ffb600"/>
    <path id="Caminho_156" data-name="Caminho 156" d="M663.836,12.505A7.261,7.261,0,0,1,653.8,10.194h0A7.258,7.258,0,0,1,656.1.2h0a7.269,7.269,0,0,1,10.015,2.26h0a7.309,7.309,0,0,1,.137,7.561h0A7.556,7.556,0,0,1,663.836,12.505Z" transform="translate(208.324 88.698)" fill="#164464"/>
    <path id="Caminho_157" data-name="Caminho 157" d="M636.891,41.284a7.22,7.22,0,0,1-4.959-9h0a7.312,7.312,0,0,1,9-4.959h0a7.274,7.274,0,0,1,4.942,9.035h0a6.824,6.824,0,0,1-.672,1.594h0A7.217,7.217,0,0,1,636.891,41.284Z" transform="translate(109.451 219.956)" fill="#164464"/>
    <path id="Caminho_158" data-name="Caminho 158" d="M650.173,6.593l-.188-.114h0l-.16-.091h0a7.214,7.214,0,0,1-2.659-9.907h0A7.27,7.27,0,0,1,657.1-6.212h0c.063.04.109.108.171.142h0c.063.034.142.04.205.08h0a7.292,7.292,0,0,1,2.642,9.941h0A7.269,7.269,0,0,1,650.173,6.593Z" transform="translate(177.75 59.351)" fill="#ffb600"/>
    <path id="Caminho_159" data-name="Caminho 159" d="M636.389,34.862a7.254,7.254,0,0,1-10.265.211h0a7.291,7.291,0,0,1-.245-10.282h0a7.293,7.293,0,0,1,10.294-.194h0a7.255,7.255,0,0,1,1.27,8.893h0A7.549,7.549,0,0,1,636.389,34.862Z" transform="translate(73.059 198.931)" fill="#ffb600"/>
    <path id="Caminho_160" data-name="Caminho 160" d="M644.556,4.862a7.209,7.209,0,0,1-6.969-7.51h0a7.265,7.265,0,0,1,7.527-7h0a7.293,7.293,0,0,1,7,7.527h0a7.257,7.257,0,0,1-1,3.4h0A7.177,7.177,0,0,1,644.556,4.862Z" transform="translate(137.375 47.708)" fill="#164464"/>
    <path id="Caminho_161" data-name="Caminho 161" d="M628.661,29.139a7.206,7.206,0,0,1-9.184-4.566h0a7.248,7.248,0,0,1,4.583-9.212h0a7.28,7.28,0,0,1,9.195,4.617h0a7.277,7.277,0,0,1-.615,5.938h0A6.98,6.98,0,0,1,628.661,29.139Z" transform="translate(50.6 163.387)" fill="#164464"/>
    <path id="Caminho_162" data-name="Caminho 162" d="M639.191,6h0A7.3,7.3,0,0,1,629.5,2.53h0a7.26,7.26,0,0,1,3.45-9.662h0a7.243,7.243,0,0,1,9.679,3.416h0a7.251,7.251,0,0,1-.262,6.781h0A7.491,7.491,0,0,1,639.191,6Z" transform="translate(96.173 56.189)" fill="#164464"/>
    <path id="Caminho_163" data-name="Caminho 163" d="M624.468,20.526a7.3,7.3,0,0,1-6.012-8.352h0a7.27,7.27,0,0,1,8.352-6.012h0a7.291,7.291,0,0,1,6.012,8.347h0A7.044,7.044,0,0,1,631.926,17h0A7.323,7.323,0,0,1,624.468,20.526Z" transform="translate(47.17 121.482)" fill="#164464"/>
    <path id="Caminho_164" data-name="Caminho 164" d="M634.971,9.436a7.324,7.324,0,0,1-10.2,1.48h0A7.266,7.266,0,0,1,623.328.742h0A7.235,7.235,0,0,1,633.508-.71h0a7.214,7.214,0,0,1,1.919,9.44h0A7.125,7.125,0,0,1,634.971,9.436Z" transform="translate(63.642 82.806)" fill="#164464"/>
  </g>
</svg>
