<svg width="64" height="50" viewBox="0 0 64 50" fill="none" xmlns="http://www.w3.org/2000/svg">
<path d="M56.8889 0H7.11111C3.18889 0 0 3.20312 0 7.14286V42.8571C0 46.7969 3.18889 50 7.11111 50H56.8889C60.8111 50 64 46.7969 64 42.8571V7.14286C64 3.20312 60.8111 0 56.8889 0ZM60.4444 42.8571C60.4444 44.8214 58.8444 46.4286 56.8889 46.4286H7.11111C5.15556 46.4286 3.55556 44.8214 3.55556 42.8571V7.14286C3.55556 5.17857 5.15556 3.57143 7.11111 3.57143H56.8889C58.8444 3.57143 60.4444 5.17857 60.4444 7.14286V42.8571ZM52.4444 28.5714H40C39.5111 28.5714 39.1111 28.9732 39.1111 29.4643V31.25C39.1111 31.7411 39.5111 32.1429 40 32.1429H52.4444C52.9333 32.1429 53.3333 31.7411 53.3333 31.25V29.4643C53.3333 28.9732 52.9333 28.5714 52.4444 28.5714ZM52.4444 21.4286H40C39.5111 21.4286 39.1111 21.8304 39.1111 22.3214V24.1071C39.1111 24.5982 39.5111 25 40 25H52.4444C52.9333 25 53.3333 24.5982 53.3333 24.1071V22.3214C53.3333 21.8304 52.9333 21.4286 52.4444 21.4286ZM52.4444 14.2857H40C39.5111 14.2857 39.1111 14.6875 39.1111 15.1786V16.9643C39.1111 17.4554 39.5111 17.8571 40 17.8571H52.4444C52.9333 17.8571 53.3333 17.4554 53.3333 16.9643V15.1786C53.3333 14.6875 52.9333 14.2857 52.4444 14.2857ZM23.1111 28.5714C28.0222 28.5714 32 24.5759 32 19.6429C32 14.7098 28.0222 10.7143 23.1111 10.7143C18.2 10.7143 14.2222 14.7098 14.2222 19.6429C14.2222 24.5759 18.2 28.5714 23.1111 28.5714ZM23.1111 14.2857C26.0556 14.2857 28.4444 16.6853 28.4444 19.6429C28.4444 22.6004 26.0556 25 23.1111 25C20.1667 25 17.7778 22.6004 17.7778 19.6429C17.7778 16.6853 20.1667 14.2857 23.1111 14.2857ZM28.3111 30.3571C26.1444 30.3571 25.6 31.1384 23.1111 31.1384C20.6222 31.1384 20.0778 30.3571 17.9111 30.3571C15.5556 30.3571 13.2667 31.4062 11.9333 33.4152C11.1333 34.6094 10.6667 36.0491 10.6667 37.6004V40.1786C10.6667 40.6696 11.0667 41.0714 11.5556 41.0714H13.3333C13.8222 41.0714 14.2222 40.6696 14.2222 40.1786V37.6004C14.2222 36.8192 14.4556 36.0603 14.8889 35.4129C15.5111 34.4866 16.6444 33.9397 17.9222 33.9397C19.3 33.9397 20.2333 34.721 23.1222 34.721C26 34.721 26.9333 33.9397 28.3222 33.9397C29.6 33.9397 30.7333 34.4978 31.3556 35.4129C31.7889 36.0603 32.0222 36.8192 32.0222 37.6004V40.1786C32.0222 40.6696 32.4222 41.0714 32.9111 41.0714H34.6889C35.1778 41.0714 35.5778 40.6696 35.5778 40.1786V37.6004C35.5778 36.0491 35.1111 34.6094 34.3111 33.4152C32.9444 31.4062 30.6556 30.3571 28.3111 30.3571Z" fill="white"/>
</svg>
